<svg xmlns="http://www.w3.org/2000/svg" viewBox="0 0 512 512" role="img" aria-label="GlowAI icon">
  <defs>
    <linearGradient id="bg" x1="70" y1="56" x2="448" y2="456" gradientUnits="userSpaceOnUse">
      <stop stop-color="#ffd76a"/>
      <stop offset=".42" stop-color="#ff4db8"/>
      <stop offset="1" stop-color="#8f5cff"/>
    </linearGradient>
    <radialGradient id="shine" cx="0" cy="0" r="1" gradientTransform="translate(164 138) rotate(47) scale(232)">
      <stop stop-color="#fff7fb"/>
      <stop offset=".46" stop-color="#fff7fb" stop-opacity=".38"/>
      <stop offset="1" stop-color="#fff7fb" stop-opacity="0"/>
    </radialGradient>
  </defs>
  <rect width="512" height="512" rx="112" fill="#110819"/>
  <rect x="28" y="28" width="456" height="456" rx="96" fill="url(#bg)"/>
  <circle cx="176" cy="138" r="174" fill="url(#shine)"/>
  <path d="M352 181c-25-27-58-42-95-42-74 0-132 57-132 128s58 128 132 128c47 0 86-22 110-56v-73H247v55h57c-12 14-29 22-50 22-42 0-72-32-72-76 0-43 30-76 73-76 24 0 43 9 58 26l39-36z" fill="#110819"/>
  <path d="M152 393c36 28 73 42 112 42 49 0 88-18 119-53" fill="none" stroke="#fff7fb" stroke-width="18" stroke-linecap="round" opacity=".82"/>
</svg>
